Coordinates
version=1
nRows=38
nColumns=12
inDegrees=yes

Units are S.I. units (second, meters, Newtons, ...)
Angles are in degrees

endheader
time	SC_y	SC_z	SC_x	AC_y	AC_z	AC_x	GH_y	GH_z	GH_yy	EL_x	PS_y
       0.0               -16.2           37.6          21.68          60.52          -5.05          12.83          36.34         -15.62          147.8          122.2          64.77
   0.04268               -16.2           37.6          21.69          60.52         -5.052          12.83          36.34         -15.61          147.8          122.3          64.77
   0.08536               -16.2          37.59           21.7          60.52         -5.054          12.83          36.35          -15.6          147.8          122.3          64.76
     0.128              -16.21          37.59          21.71          60.51         -5.056          12.83          36.36          -15.6          147.8          122.3          64.76
    0.1707              -16.21          37.58          21.72          60.51         -5.059          12.83          36.37         -15.59          147.7          122.3          64.76
    0.2134              -16.21          37.58          21.73          60.51         -5.061          12.83          36.38         -15.59          147.7          122.3          64.75
    0.2561              -16.22          37.57          21.75           60.5         -5.064          12.83          36.39         -15.58          147.7          122.3          64.75
    0.2987              -16.22          37.56          21.76           60.5         -5.067          12.83           36.4         -15.57          147.6          122.3          64.75
    0.3414              -16.23          37.56          21.77           60.5         -5.071          12.83          36.41         -15.56          147.6          122.3          64.74
    0.3841              -16.23          37.55          21.79          60.49         -5.074          12.83          36.42         -15.55          147.6          122.3          64.74
    0.4268              -16.24          37.54           21.8          60.49         -5.078          12.83          36.43         -15.54          147.5          122.3          64.73
    0.4695              -16.24          37.53          21.82          60.49         -5.082          12.83          36.44         -15.53          147.5          122.3          64.73
    0.5121              -16.25          37.52          21.84          60.48         -5.086          12.83          36.46         -15.52          147.4          122.3          64.72
    0.5548              -16.25          37.51          21.86          60.47         -5.091          12.83          36.47         -15.51          147.4          122.3          64.72
    0.5975              -16.26           37.5          21.88          60.47         -5.096          12.83          36.49          -15.5          147.3          122.3          64.71
    0.6402              -16.27          37.49           21.9          60.46         -5.102          12.83          36.51         -15.48          147.3          122.3          64.71
    0.6829              -16.28          37.47          21.93          60.46         -5.108          12.83          36.53         -15.47          147.2          122.3           64.7
    0.7255              -16.28          37.46          21.96          60.45         -5.114          12.83          36.55         -15.45          147.1          122.3          64.69
    0.7682              -16.29          37.44          21.99          60.44         -5.122          12.83          36.57         -15.43          147.0          122.3          64.68
    0.8109               -16.3          37.43          22.02          60.43         -5.129          12.83           36.6         -15.41          146.9          122.3          64.67
    0.8536              -16.32          37.41          22.06          60.42         -5.138          12.83          36.63         -15.39          146.8          122.4          64.66
    0.8962              -16.33          37.39          22.09          60.41         -5.148          12.83          36.66         -15.36          146.7          122.4          64.65
    0.9389              -16.34          37.36          22.14           60.4         -5.158          12.83          36.69         -15.34          146.6          122.4          64.64
    0.9816              -16.36          37.34          22.19          60.39          -5.17          12.83          36.73         -15.31          146.5          122.4          64.62
     1.024              -16.37          37.31          22.24          60.37         -5.183          12.83          36.77         -15.27          146.3          122.4          64.61
     1.067              -16.39          37.28           22.3          60.36         -5.197          12.83          36.82         -15.24          146.2          122.4          64.59
      1.11              -16.41          37.24          22.37          60.34         -5.213          12.83          36.87         -15.19          146.0          122.4          64.57
     1.152              -16.44           37.2          22.45          60.32         -5.231          12.83          36.93         -15.15          145.8          122.5          64.55
     1.195              -16.47          37.16          22.53           60.3         -5.252          12.83           37.0         -15.09          145.6          122.5          64.52
     1.238               -16.5           37.1          22.63          60.27         -5.275          12.83          37.08         -15.03          145.3          122.5           64.5
      1.28              -16.53          37.05          22.74          60.24         -5.302          12.83          37.17         -14.97          145.0          122.5          64.46
     1.323              -16.57          36.98          22.87          60.21         -5.332          12.84          37.27         -14.89          144.7          122.6          64.43
     1.366              -16.62           36.9          23.02          60.17         -5.368          12.84          37.38          -14.8          144.3          122.6          64.38
     1.408              -16.67          36.81          23.19          60.12         -5.408          12.84          37.52         -14.69          143.8          122.7          64.33
     1.451              -16.73           36.7          23.39          60.07         -5.456          12.84          37.67         -14.57          143.3          122.7          64.28
     1.494              -16.81          36.58          23.63          60.01         -5.513          12.84          37.86         -14.42          142.6          122.8          64.21
     1.536               -16.9          36.43          23.91          59.93          -5.58          12.84          38.08         -14.25          141.9          122.9          64.13
     1.579               -17.0          36.25          24.24          59.84          -5.66          12.84          38.34         -14.04          141.0          123.0          64.03
